# xmcd
#
# Track frame offsets: 
#        150
#        13904
#        25391
#        38098
#        50172
#        60988
#        72189
#        83481
#        95407
#        106873
#        119443
#        132281
#        141879
#        153303
#        166047
#        187176
#        193102
#        208890
#        216993
#        236332
#        243568
#        254528
#        266568
#        282217
#
# Disc length: 3914 seconds
#
# Revision: 2
# Processed by: cddbd v1.5.2PL0 Copyright (c) Steve Scherf et al.
# Submitted via: ExactAudioCopy v1.1
#
DISCID=610f4818
DTITLE=Les Baxter - Midnight On The Cliffs - Ports Of Pleasure
DYEAR=1957
DGENRE=Pop
TTITLE0=Midnight On The Cliffs (mono)
TTITLE1=Wake The Town And Tell The People (mono)
TTITLE2=End Of Spring (mono)
TTITLE3=Take My Love (mono)
TTITLE4=The Shrike (mono)
TTITLE5=Blue Mirage (mono)
TTITLE6=Unchained Melody (mono)
TTITLE7=The Medic Theme (mono)
TTITLE8=Suddenly (mono)
TTITLE9=If You Were Mine (mono)
TTITLE10=When You're In Love (mono)
TTITLE11=Dream Rhapsody (mono)
TTITLE12=Tahiti, A Summer Night At Sea (stereo)
TTITLE13=Hong Kong Cable Car (stereo)
TTITLE14=The Gates Of Annam (stereo)
TTITLE15=Shanghai Rickshaw (stereo)
TTITLE16=Tramp Steamer To Singapore (stereo)
TTITLE17=Spice Islands Sea Birds (stereo)
TTITLE18=City Of Veils (stereo)
TTITLE19=Monkey Dance Of Bali (stereo)
TTITLE20=Harem Silks From Bombay (stereo)
TTITLE21=Sidewalk Cafes Of Saigon (stereo)
TTITLE22=The Pearls Of Ceylon (stereo)
TTITLE23=Bangkok Cockfight (stereo)
EXTD=YEAR: 1957
EXTT0=
EXTT1=
EXTT2=
EXTT3=
EXTT4=
EXTT5=
EXTT6=
EXTT7=
EXTT8=
EXTT9=
EXTT10=
EXTT11=
EXTT12=
EXTT13=
EXTT14=
EXTT15=
EXTT16=
EXTT17=
EXTT18=
EXTT19=
EXTT20=
EXTT21=
EXTT22=
EXTT23=
PLAYORDER=
